<?xml version="1.0" encoding="UTF-8" standalone="no"?>
<!-- Created with Inkscape (http://www.inkscape.org/) -->

<svg
   width="100mm"
   height="100mm"
   viewBox="0 0 100 100"
   version="1.1"
   id="svg5"
   inkscape:version="1.2.2 (732a01da63, 2022-12-09)"
   sodipodi:docname="blue_crystal1.svg"
   inkscape:export-filename="orange_crystal2.png"
   inkscape:export-xdpi="96"
   inkscape:export-ydpi="96"
   xmlns:inkscape="http://www.inkscape.org/namespaces/inkscape"
   xmlns:sodipodi="http://sodipodi.sourceforge.net/DTD/sodipodi-0.dtd"
   xmlns="http://www.w3.org/2000/svg"
   xmlns:svg="http://www.w3.org/2000/svg">
  <sodipodi:namedview
     id="namedview7"
     pagecolor="#ffffff"
     bordercolor="#666666"
     borderopacity="1.0"
     inkscape:showpageshadow="2"
     inkscape:pageopacity="0.0"
     inkscape:pagecheckerboard="0"
     inkscape:deskcolor="#d1d1d1"
     inkscape:document-units="mm"
     showgrid="false"
     inkscape:zoom="2.0510461"
     inkscape:cx="146.5106"
     inkscape:cy="155.28661"
     inkscape:window-width="1920"
     inkscape:window-height="1001"
     inkscape:window-x="-9"
     inkscape:window-y="-9"
     inkscape:window-maximized="1"
     inkscape:current-layer="layer3" />
  <defs
     id="defs2" />
  <g
     inkscape:label="Layer 1"
     inkscape:groupmode="layer"
     id="layer1"
     style="display:none">
    <g
       id="g2455"
       transform="matrix(1.0082842,0,0,1.069194,-0.68168987,-6.8079404)">
      <path
         style="fill:#60f6f6;fill-opacity:1;stroke:#000000;stroke-width:0.264583px;stroke-linecap:butt;stroke-linejoin:miter;stroke-opacity:1"
         d="M 81.547298,90.668918 70.783782,98.33108 26.635136,98.148647 16.966216,90.486486 25.722973,17.513513 38.675675,8.9391891 H 63.12162 l 12.587839,8.0270269 z"
         id="path2242"
         sodipodi:nodetypes="ccccccccc" />
      <path
         style="fill:#afffff;fill-opacity:1;stroke:#000000;stroke-width:0.264583px;stroke-linecap:butt;stroke-linejoin:miter;stroke-opacity:1"
         d="M 70.966215,98.33108 75.344593,16.966216 63.121621,8.9391891 Z"
         id="path2340" />
      <path
         style="fill:#afffff;fill-opacity:1;stroke:#000000;stroke-width:0.264583px;stroke-linecap:butt;stroke-linejoin:miter;stroke-opacity:1"
         d="M 26.635136,98.148647 26.087837,17.148648 38.858107,8.9391891 Z"
         id="path2342" />
    </g>
  </g>
  <g
     inkscape:groupmode="layer"
     id="layer2"
     inkscape:label="Layer 2"
     style="display:none">
    <path
       style="fill:#f85f0e;fill-opacity:1;stroke:#000000;stroke-width:0.264583px;stroke-linecap:butt;stroke-linejoin:miter;stroke-opacity:1"
       d="M 76.256755,88.479729 68.047298,97.418918 39.222973,97.601351 31.013513,87.020269 41.412162,22.621621 53.817567,10.763513 66.405405,21.162162 Z"
       id="path3192" />
    <path
       style="fill:#ff7e39;fill-opacity:1;stroke:#000000;stroke-width:0.264583px;stroke-linecap:butt;stroke-linejoin:miter;stroke-opacity:1"
       d="M 68.412161,97.601351 60.202701,25.54054 47.614863,26.087837 39.405406,97.601351 Z"
       id="path3196" />
    <path
       style="fill:#ff7e39;fill-opacity:1;stroke:#000000;stroke-width:0.264583px;stroke-linecap:butt;stroke-linejoin:miter;stroke-opacity:1"
       d="M 41.229729,22.712838 47.432433,26.179054 54,10.85473 Z"
       id="path3198" />
    <path
       style="fill:#ff9155;fill-opacity:1;stroke:#000000;stroke-width:0.264583px;stroke-linecap:butt;stroke-linejoin:miter;stroke-opacity:1"
       d="M 47.614863,26.179054 60.111486,25.722973 53.908782,10.945946 Z"
       id="path3200" />
    <path
       style="fill:#ff7e39;fill-opacity:1;stroke:#000000;stroke-width:0.264583px;stroke-linecap:butt;stroke-linejoin:miter;stroke-opacity:1"
       d="M 59.929053,25.631756 66.49662,21.162162 54,11.037162 Z"
       id="path3202" />
  </g>
  <g
     inkscape:groupmode="layer"
     id="layer3"
     inkscape:label="Layer 3">
    <path
       style="fill:#1eb800;fill-opacity:1;stroke:#000000;stroke-width:1;stroke-linecap:round;stroke-linejoin:round;paint-order:stroke markers fill;stroke-opacity:1;stroke-dasharray:none"
       id="path3257"
       sodipodi:type="arc"
       sodipodi:cx="54.364864"
       sodipodi:cy="47.797295"
       sodipodi:rx="26.087837"
       sodipodi:ry="35.756756"
       sodipodi:start="3.7567332"
       sodipodi:end="3.7375348"
       sodipodi:open="true"
       sodipodi:arc-type="arc"
       d="m 33.059127,27.163025 a 26.087837,35.756756 0 0 1 36.2579,-8.666699 26.087837,35.756756 0 0 1 6.497103,49.653973 26.087837,35.756756 0 0 1 -36.195533,9.143336 26.087837,35.756756 0 0 1 -6.84455,-49.566205" />
    <path
       style="fill:#21ce00;fill-opacity:1;stroke:#000000;stroke-width:0.264583px;stroke-linecap:butt;stroke-linejoin:miter;stroke-opacity:1"
       d="m 45.794718,26.315838 7.739954,-14.060913 7.739951,13.931914 15.221908,2.450986 -5.417968,17.672891 7.223955,16.5119 -15.092907,7.739951 -8.320447,13.15792 -8.062452,-13.02892 -16.511897,-6.83696 6.449959,-17.930889 -5.095468,-16.5119 z"
       id="path4195"
       sodipodi:nodetypes="ccccccccccccc" />
    <path
       style="fill:#27f200;stroke:#000000;stroke-width:0.264583px;stroke-linecap:butt;stroke-linejoin:miter;stroke-opacity:1;fill-opacity:1"
       d="m 45.630239,26.613001 15.849489,-0.160299 9.486487,20.25 -7.652993,23.791783 -16.61052,0.106865 -9.851351,-24.081081 z"
       id="path4193"
       sodipodi:nodetypes="ccccccc" />
  </g>
</svg>
